# xmcd
#
# Track frame offsets: 
#        150
#        11497
#        26652
#        40280
#        54865
#        68642
#        88747
#        98500
#        110180
#        123577
#        136730
#        155270
#        172407
#        187847
#        199982
#        216115
#        230860
#        244905
#        261380
#        275347
#
# Disc length: 3890 seconds
#
# Revision: 1
# Processed by: cddbd v1.5.1PL0 Copyright (c) Steve Scherf et al.
# Submitted via: ExactAudioCopy v0.90b4
#
DISCID=220f3014
DTITLE=Rick Nelson - Rick Nelson and the Stone Canyon Band 1969 - 1976
DYEAR=1995
DGENRE=Rock
TTITLE0=If You Gotta Go, Go Now
TTITLE1=I Shall Be Released
TTITLE2=She  Belongs To Me 
TTITLE3=Easy To Be Free
TTITLE4=California
TTITLE5=Anytime
TTITLE6=Down Along The Bayou Country
TTITLE7=This Train
TTITLE8=Life
TTITLE9=Love Minus Zero - No Limit
TTITLE10=Gypsy Pilot
TTITLE11=Garden Party
TTITLE12=Legacy
TTITLE13=Lifestream
TTITLE14=Wild Nights In Tulsa
TTITLE15=One Nigth Stand
TTITLE16=Try (Try To Fall In Love)
TTITLE17=Louisiana Belle
TTITLE18=Rock And Roll Lady
TTITLE19=Fade Away
EXTD=Rick Nelson and the Stone Canyon Band 1969 - 1976\n1995 Edsel Rec
EXTD=ords/Demon Records\n\nOriginally Released April 25, 1995\n\nAMG E
EXTD=XPERT REVIEW: N/A\n\nAmazon.com Customer Review\nUnheralded but s
EXTD=uperb!, March 16, 2002\nReviewer: A music fan\nFaced with the pro
EXTD=spect of being an "oldies act" for the rest of his career, Rick N
EXTD=elson did a radical shift away from good ol' rock 'n roll in the 
EXTD=late Sixties/early Seventies and released several albums that typ
EXTD=ify the best of what's now known as "country rock." This collecti
EXTD=on and a subsequent "Volume 2" feature the cream of those albums,
EXTD=and they showcase a guy with great interpretive abilities (he ar
EXTD=guably does the most definitive versions of Bob Dylan's songs thi
EXTD=s side of the Byrds), really good songs of his own and a crack en
EXTD=semble backing him to the hilt. The Stone Canyon Band featured so
EXTD=me the finest musicians in the business (the great Tom Brumley on
EXTD=pedal steel, past-Poco-and-future-Eagle Randy Meisner on bass, A
EXTD=llan Kemp doing lead guitar) and they and the others who came int
EXTD=o the group at various points give Nelson's pleasant tenor a big 
EXTD=push forward. Nelson holds his own at all times, whether he rocks
EXTD=out with "If You Gotta Go, Go Now," downshifts to gentle with "L
EXTD=ifestream" and "Anytime" or waxes sardonic with--what else--"Gard
EXTD=en Party," still one of the best commentaries on the dangers of n
EXTD=ostalgia. This showcases a fine artist who died all too soon, but
EXTD=he at least never ended up having to "drive a truck," as he puts
EXTD=it in "Garden Party."\n\nAmazon.com Customer Review\nA grown-up 
EXTD=Nelson in his Prime!, May 20, 1999\nReviewer: A music fan\nFormer
EXTD=teen idol Rick Nelson was making some of the best music of his c
EXTD=areer in the early 70's, hard-driving country-rock that stands co
EXTD=mfortably next to Michael Nesmith's in sound and quality. Only nobo
EXTD=dy was buying! Too bad... Excellent covers of Dylan's "Just Like 
EXTD=A Woman" and the Stones' "Honky Tonk Woman" round out a great col
EXTD=lection of Nelson originals. "This Train" is one of my favorite "
EXTD=new" rock tunes, and perhaps the only song I've ever felt was jus
EXTD=t TOO SHORT! The album's finale is the incredible, powerful and e
EXTD=erily prophetic "Gypsy Pilot", on which Rick sings about life on 
EXTD=the road. It ends with the sound of a plane crash. Isn't that jus
EXTD=t spooky?\nThis album is now also available as a "twofer" with th
EXTD=e earlier "RICK SINGS NELSON", which is almost as good, and for r
EXTD=eal fans may be a better deal.\n\nAmazon.com Customer Review\nExc
EXTD=ellent introduction to the founder of LA Country Rock., November 
EXTD=27, 1998\nReviewer: A music fan\nHere at last is a excellent intr
EXTD=oduction to the founder of LA Country Rock music. Combining his T
EXTD=op 40 hits "She belongs To Me" and "Garden Party" with to most, his
EXTD=unheard album cuts. Now at last such great songs as "Gypsy Pilot
EXTD=", "One Night Stand" and some great Dylan tunes, can be heard in 
EXTD=one listening. Miss at your own peril.\n\nHalf.com Album Notes\nF
EXTD=ull performer name: Rick Nelson and Stone Canyon Band.\n\nRick Nels
EXTD=on and Stone Canyon Band: Rick Nelson (vocals, guitar, piano) - Alle
EXTD=n Kemp (guitar, background vocals) - Tom Brumley (pedal steel guit
EXTD=ar) - Randy Meisner, Tim Cetera (bass, background vocals) - Pat Sha
EXTD=nahan (drums).\n\nIncludes liner notes by John Tobler.
EXTT0=
EXTT1=
EXTT2=
EXTT3=
EXTT4=
EXTT5=
EXTT6=
EXTT7=
EXTT8=
EXTT9=
EXTT10=
EXTT11=
EXTT12=
EXTT13=
EXTT14=
EXTT15=
EXTT16=
EXTT17=
EXTT18=
EXTT19=
PLAYORDER=
